<?xml version="1.0" encoding="utf-8"?>
<!-- Generator: Adobe Illustrator 23.0.1, SVG Export Plug-In . SVG Version: 6.00 Build 0)  -->
<svg version="1.1" id="Layer_1" xmlns="http://www.w3.org/2000/svg" xmlns:xlink="http://www.w3.org/1999/xlink" x="0px" y="0px"
	 viewBox="0 0 66 66" style="enable-background:new 0 0 66 66;" xml:space="preserve">
<style type="text/css">
	.st0{fill:#FF4C00;}
	.st1{fill:#FFFFFF;}
</style>
<rect x="1" y="1" class="st0" width="66" height="66"/>
<path class="st0" d="M33,1c17.7,0,32,14.3,32,32S50.7,65,33,65S1,50.7,1,33S15.3,1,33,1"/>
<path class="st1" d="M47.8,22.6c-2.6,0-4.7,2.1-4.7,4.7c0,1.2,0.5,2.3,1.2,3.1l-10.4,15v-23c2.1-0.5,3.6-2.4,3.6-4.6
	c0-2.6-2.1-4.7-4.7-4.7s-4.7,2.1-4.7,4.7c0,2.2,1.6,4.1,3.6,4.6v22.9L21,30.5c0.7-0.8,1.2-1.9,1.2-3.1c0-2.6-2.1-4.7-4.7-4.7
	s-4.7,2.1-4.7,4.7s2.1,4.7,4.7,4.7c0.7,0,1.3-0.1,1.9-0.4L31.7,49v12.3h2.2V49.1l12-17.3c0.6,0.2,1.2,0.4,1.8,0.4
	c2.6,0,4.7-2.1,4.7-4.7C52.5,24.7,50.4,22.6,47.8,22.6z"/>
</svg>
